<svg width="574" height="659" viewBox="0 0 574 659" fill="none" xmlns="http://www.w3.org/2000/svg">
<g clip-path="url(#clip0_2_2)">
<path d="M335.13 205.69L293.07 5.08C291.63 -1.74 281.89 -1.74 280.46 5.08L238.37 205.69L72.25 247.81C70.8591 248.16 69.625 248.965 68.7433 250.096C67.8616 251.227 67.3828 252.621 67.3828 254.055C67.3828 255.489 67.8616 256.883 68.7433 258.014C69.625 259.145 70.8591 259.95 72.25 260.3L238.37 302.44L280.37 652.44C281.28 660 292.25 660 293.16 652.44L335.16 302.44L501.25 260.3C502.641 259.95 503.875 259.145 504.757 258.014C505.638 256.883 506.117 255.489 506.117 254.055C506.117 252.621 505.638 251.227 504.757 250.096C503.875 248.965 502.641 248.16 501.25 247.81L335.13 205.69Z" fill="#C13934"/>
<path d="M234.95 169.14L230.14 192.14C229.853 193.508 229.188 194.768 228.221 195.777C227.254 196.786 226.024 197.504 224.67 197.85L207.47 202.23L173.41 149.52L167.84 140.89C167.84 140.89 167.84 140.81 167.76 140.77C166.14 137.1 165.63 133.92 167.49 131.87C169.62 129.51 173.84 130.4 178.37 132.57L186.37 137.72L234.98 169.14H234.95Z" fill="#C13934"/>
<path d="M338.46 169.14L343.13 191.45C343.458 193.024 344.222 194.474 345.334 195.636C346.446 196.797 347.862 197.623 349.42 198.02L365.94 202.23L400 149.52L405.57 140.89C405.57 140.89 405.57 140.81 405.65 140.77C407.27 137.1 407.77 133.92 405.92 131.87C403.79 129.51 399.57 130.4 395.04 132.57L387.04 137.72L338.43 169.14H338.46Z" fill="#C13934"/>
<path d="M232.37 337.08L229.47 316.18C229.271 314.738 228.648 313.388 227.679 312.301C226.71 311.215 225.44 310.442 224.03 310.08L203.6 304.83L169.55 357.55L163.98 366.18C163.98 366.18 163.98 366.26 163.9 366.29C162.28 369.97 161.77 373.14 163.63 375.2C165.76 377.56 169.98 376.67 174.51 374.5L182.51 369.35L232.37 337.08Z" fill="#C13934"/>
<path d="M340.93 337.02L343.93 316.57C344.158 315.011 344.841 313.553 345.895 312.381C346.948 311.208 348.324 310.373 349.85 309.98L369.85 304.84L403.91 357.55L409.48 366.18C409.48 366.18 409.48 366.26 409.56 366.29C411.18 369.97 411.68 373.14 409.83 375.2C407.7 377.56 403.48 376.67 398.95 374.5L390.95 369.35L340.95 337.02H340.93Z" fill="#C13934"/>
<path d="M53.55 428.71H0V73.08H57.41C69.65 81.31 62.64 94 53.51 94H25.86C25.8456 94 25.8312 94.0028 25.8179 94.0084C25.8046 94.0139 25.7924 94.022 25.7822 94.0322C25.772 94.0424 25.7639 94.0546 25.7584 94.0679C25.7528 94.0812 25.75 94.0956 25.75 94.11V407.69C25.75 407.704 25.7528 407.719 25.7584 407.732C25.7639 407.745 25.772 407.758 25.7822 407.768C25.7924 407.778 25.8046 407.786 25.8179 407.792C25.8312 407.797 25.8456 407.8 25.86 407.8H57.41C69.65 416.02 62.64 428.71 53.55 428.71Z" fill="#C13934"/>
<path d="M516.09 407.8H547.75V94.02H516.09C503.85 85.79 510.86 73.1 519.99 73.1H573.55V428.71H519.99C510.86 428.71 503.85 416.02 516.09 407.8Z" fill="#C13934"/>
</g>
<defs>
<clipPath id="clip0_2_2">
<rect width="573.49" height="658.08" fill="white"/>
</clipPath>
</defs>
</svg>
